<!DOCTYPE svg PUBLIC "-//W3C//DTD SVG 1.1//EN" "http://www.w3.org/Graphics/SVG/1.1/DTD/svg11.dtd">
<!-- Uploaded to: SVG Repo, www.svgrepo.com, Transformed by: SVG Repo Mixer Tools -->
<svg width="256px" height="256px" viewBox="0 0 16 16" xmlns="http://www.w3.org/2000/svg" fill="#FFFFFF" class="bi bi-outlet" stroke="#FFFFFF">
<g id="SVGRepo_bgCarrier" stroke-width="0"/>
<g id="SVGRepo_tracerCarrier" stroke-linecap="round" stroke-linejoin="round"/>
<g id="SVGRepo_iconCarrier"> <path d="M3.34 2.994c.275-.338.68-.494 1.074-.494h7.172c.393 0 .798.156 1.074.494.578.708 1.84 2.534 1.84 5.006 0 2.472-1.262 4.297-1.84 5.006-.276.338-.68.494-1.074.494H4.414c-.394 0-.799-.156-1.074-.494C2.762 12.297 1.5 10.472 1.5 8c0-2.472 1.262-4.297 1.84-5.006zm1.074.506a.376.376 0 0 0-.299.126C3.599 4.259 2.5 5.863 2.5 8c0 2.137 1.099 3.74 1.615 4.374.06.073.163.126.3.126h7.17c.137 0 .24-.053.3-.126.516-.633 1.615-2.237 1.615-4.374 0-2.137-1.099-3.74-1.615-4.374a.376.376 0 0 0-.3-.126h-7.17z"/> <path d="M6 5.5a.5.5 0 0 1 .5.5v1.5a.5.5 0 0 1-1 0V6a.5.5 0 0 1 .5-.5zm4 0a.5.5 0 0 1 .5.5v1.5a.5.5 0 0 1-1 0V6a.5.5 0 0 1 .5-.5zM7 10v1h2v-1a1 1 0 0 0-2 0z"/> </g>
</svg>